<svg width="473" height="99" viewBox="0 0 473 99" fill="none" xmlns="http://www.w3.org/2000/svg">
<path d="M20.2095 0.371422H26.7619V6.9238H20.2095V0.371422ZM26.7619 0.371422H33.3143V6.9238H26.7619V0.371422ZM33.3143 0.371422H39.8667V6.9238H33.3143V0.371422ZM39.8667 0.371422H46.4191V6.9238H39.8667V0.371422ZM46.4191 0.371422H52.9714V6.9238H46.4191V0.371422ZM13.6571 6.9238H20.2095V13.4762H13.6571V6.9238ZM13.6571 13.4762H20.2095V20.0286H13.6571V13.4762ZM20.2095 13.4762H26.7619V20.0286H20.2095V13.4762ZM20.2095 20.0286H26.7619V26.5809H20.2095V20.0286ZM26.7619 20.0286H33.3143V26.5809H26.7619V20.0286ZM33.3143 20.0286H39.8667V26.5809H33.3143V20.0286ZM33.3143 26.5809H39.8667V33.1333H33.3143V26.5809ZM26.7619 26.5809H33.3143V33.1333H26.7619V26.5809ZM7.10476 20.0286H13.6571V26.5809H7.10476V20.0286ZM7.10476 26.5809H13.6571V33.1333H7.10476V26.5809ZM13.6571 26.5809H20.2095V33.1333H13.6571V26.5809ZM13.6571 33.1333H20.2095V39.6857H13.6571V33.1333ZM20.2095 33.1333H26.7619V39.6857H20.2095V33.1333ZM20.2095 39.6857H26.7619V46.2381H20.2095V39.6857ZM26.7619 39.6857H33.3143V46.2381H26.7619V39.6857ZM52.9714 0.371422H59.5238V6.9238H52.9714V0.371422ZM46.4191 6.9238H52.9714V13.4762H46.4191V6.9238ZM52.9714 6.9238H59.5238V13.4762H52.9714V6.9238ZM59.5238 6.9238H66.0762V13.4762H59.5238V6.9238ZM66.0762 6.9238H72.6286V13.4762H66.0762V6.9238ZM59.5238 13.4762H66.0762V20.0286H59.5238V13.4762ZM72.6286 0.371422H79.181V6.9238H72.6286V0.371422ZM39.8667 26.5809H46.4191V33.1333H39.8667V26.5809ZM46.4191 26.5809H52.9714V33.1333H46.4191V26.5809ZM52.9714 26.5809H59.5238V33.1333H52.9714V26.5809ZM7.10476 65.8952H13.6571V72.4476H7.10476V65.8952ZM13.6571 65.8952H20.2095V72.4476H13.6571V65.8952ZM20.2095 65.8952H26.7619V72.4476H20.2095V65.8952ZM26.7619 65.8952H33.3143V72.4476H26.7619V65.8952ZM33.3143 65.8952H39.8667V72.4476H33.3143V65.8952ZM39.8667 65.8952H46.4191V72.4476H39.8667V65.8952ZM46.4191 65.8952H52.9714V72.4476H46.4191V65.8952ZM52.9714 65.8952H59.5238V72.4476H52.9714V65.8952ZM59.5238 65.8952H66.0762V72.4476H59.5238V65.8952ZM26.7619 72.4476H33.3143V79H26.7619V72.4476ZM33.3143 72.4476H39.8667V79H33.3143V72.4476ZM39.8667 72.4476H46.4191V79H39.8667V72.4476ZM20.2095 59.3429H26.7619V65.8952H20.2095V59.3429ZM26.7619 59.3429H33.3143V65.8952H26.7619V59.3429ZM33.3143 59.3429H39.8667V65.8952H33.3143V59.3429ZM66.0762 65.8952H72.6286V72.4476H66.0762V65.8952ZM66.0762 59.3429H72.6286V65.8952H66.0762V59.3429ZM59.5238 52.7905H66.0762V59.3429H59.5238V52.7905ZM72.6286 52.7905H79.181V59.3429H72.6286V52.7905ZM52.9714 52.7905H59.5238V59.3429H52.9714V52.7905ZM46.4191 52.7905H52.9714V59.3429H46.4191V52.7905ZM52.9714 46.2381H59.5238V52.7905H52.9714V46.2381ZM46.4191 46.2381H52.9714V52.7905H46.4191V46.2381ZM39.8667 46.2381H46.4191V52.7905H39.8667V46.2381ZM33.3143 46.2381H39.8667V52.7905H33.3143V46.2381ZM33.3143 39.6857H39.8667V46.2381H33.3143V39.6857ZM72.6286 46.2381H79.181V52.7905H72.6286V46.2381ZM72.6286 39.6857H79.181V46.2381H72.6286V39.6857ZM66.0762 39.6857H72.6286V46.2381H66.0762V39.6857ZM66.0762 46.2381H72.6286V52.7905H66.0762V46.2381ZM59.5238 39.6857H66.0762V46.2381H59.5238V39.6857ZM52.9714 33.1333H59.5238V39.6857H52.9714V33.1333ZM46.4191 33.1333H52.9714V39.6857H46.4191V33.1333ZM39.8667 33.1333H46.4191V39.6857H39.8667V33.1333ZM59.5238 33.1333H66.0762V39.6857H59.5238V33.1333ZM66.0762 33.1333H72.6286V39.6857H66.0762V33.1333ZM0.552381 72.4476H7.10476V79H0.552381V72.4476ZM81.6181 65.8952H88.1705V72.4476H81.6181V65.8952ZM88.1705 65.8952H94.7229V72.4476H88.1705V65.8952ZM94.7229 65.8952H101.275V72.4476H94.7229V65.8952ZM101.275 65.8952H107.828V72.4476H101.275V65.8952ZM88.1705 72.4476H94.7229V79H88.1705V72.4476ZM94.7229 72.4476H101.275V79H94.7229V72.4476ZM94.7229 59.3429H101.275V65.8952H94.7229V59.3429ZM88.1705 59.3429H94.7229V65.8952H88.1705V59.3429ZM88.1705 52.7905H94.7229V59.3429H88.1705V52.7905ZM88.1705 46.2381H94.7229V52.7905H88.1705V46.2381ZM94.7229 46.2381H101.275V52.7905H94.7229V46.2381ZM94.7229 39.6857H101.275V46.2381H94.7229V39.6857ZM94.7229 52.7905H101.275V59.3429H94.7229V52.7905ZM88.1705 39.6857H94.7229V46.2381H88.1705V39.6857ZM88.1705 33.1333H94.7229V39.6857H88.1705V33.1333ZM94.7229 33.1333H101.275V39.6857H94.7229V33.1333ZM94.7229 26.5809H101.275V33.1333H94.7229V26.5809ZM88.1705 26.5809H94.7229V33.1333H88.1705V26.5809ZM81.6181 33.1333H88.1705V39.6857H81.6181V33.1333ZM101.275 33.1333H107.828V39.6857H101.275V33.1333ZM94.7229 6.9238H101.275V13.4762H94.7229V6.9238ZM88.1705 6.9238H94.7229V13.4762H88.1705V6.9238ZM88.1705 0.371422H94.7229V6.9238H88.1705V0.371422ZM94.7229 0.371422H101.275V6.9238H94.7229V0.371422ZM110.278 65.8952H116.83V72.4476H110.278V65.8952ZM116.83 65.8952H123.382V72.4476H116.83V65.8952ZM123.382 65.8952H129.935V72.4476H123.382V65.8952ZM129.935 65.8952H136.487V72.4476H129.935V65.8952ZM136.487 65.8952H143.04V72.4476H136.487V65.8952ZM143.04 65.8952H149.592V72.4476H143.04V65.8952ZM123.382 72.4476H129.935V79H123.382V72.4476ZM129.935 72.4476H136.487V79H129.935V72.4476ZM116.83 59.3429H123.382V65.8952H116.83V59.3429ZM123.382 59.3429H129.935V65.8952H123.382V59.3429ZM123.382 52.7905H129.935V59.3429H123.382V52.7905ZM123.382 46.2381H129.935V52.7905H123.382V46.2381ZM123.382 39.6857H129.935V46.2381H123.382V39.6857ZM116.83 39.6857H123.382V46.2381H116.83V39.6857ZM116.83 46.2381H123.382V52.7905H116.83V46.2381ZM116.83 52.7905H123.382V59.3429H116.83V52.7905ZM123.382 33.1333H129.935V39.6857H123.382V33.1333ZM129.935 26.5809H136.487V33.1333H129.935V26.5809ZM136.487 26.5809H143.04V33.1333H136.487V26.5809ZM143.04 26.5809H149.592V33.1333H143.04V26.5809ZM136.487 33.1333H143.04V39.6857H136.487V33.1333ZM143.04 33.1333H149.592V39.6857H143.04V33.1333ZM149.592 33.1333H156.144V39.6857H149.592V33.1333ZM156.144 33.1333H162.697V39.6857H156.144V33.1333ZM149.592 39.6857H156.144V46.2381H149.592V39.6857ZM149.592 46.2381H156.144V52.7905H149.592V46.2381ZM149.592 52.7905H156.144V59.3429H149.592V52.7905ZM143.04 46.2381H149.592V52.7905H143.04V46.2381ZM143.04 39.6857H149.592V46.2381H143.04V39.6857ZM143.04 52.7905H149.592V59.3429H143.04V52.7905ZM143.04 59.3429H149.592V65.8952H143.04V59.3429ZM149.592 59.3429H156.144V65.8952H149.592V59.3429ZM149.592 65.8952H156.144V72.4476H149.592V65.8952ZM149.592 72.4476H156.144V79H149.592V72.4476ZM149.592 79H156.144V85.5524H149.592V79ZM149.592 85.5524H156.144V92.1048H149.592V85.5524ZM156.144 72.4476H162.697V79H156.144V72.4476ZM156.144 79H162.697V85.5524H156.144V79ZM129.935 85.5524H136.487V92.1048H129.935V85.5524ZM136.487 85.5524H143.04V92.1048H136.487V85.5524ZM136.487 92.1048H143.04V98.6571H136.487V92.1048ZM123.382 92.1048H129.935V98.6571H123.382V92.1048ZM143.04 92.1048H149.592V98.6571H143.04V92.1048ZM171.693 65.8952H178.245V72.4476H171.693V65.8952ZM178.245 65.8952H184.797V72.4476H178.245V65.8952ZM184.797 65.8952H191.35V72.4476H184.797V65.8952ZM191.35 65.8952H197.902V72.4476H191.35V65.8952ZM178.245 72.4476H184.797V79H178.245V72.4476ZM184.797 72.4476H191.35V79H184.797V72.4476ZM204.455 65.8952H211.007V72.4476H204.455V65.8952ZM211.007 65.8952H217.559V72.4476H211.007V65.8952ZM217.559 65.8952H224.112V72.4476H217.559V65.8952ZM211.007 72.4476H217.559V79H211.007V72.4476ZM211.007 59.3429H217.559V65.8952H211.007V59.3429ZM204.455 59.3429H211.007V65.8952H204.455V59.3429ZM204.455 52.7905H211.007V59.3429H204.455V52.7905ZM204.455 46.2381H211.007V52.7905H204.455V46.2381ZM211.007 46.2381H217.559V52.7905H211.007V46.2381ZM211.007 52.7905H217.559V59.3429H211.007V52.7905ZM178.245 59.3429H184.797V65.8952H178.245V59.3429ZM184.797 59.3429H191.35V65.8952H184.797V59.3429ZM184.797 52.7905H191.35V59.3429H184.797V52.7905ZM178.245 52.7905H184.797V59.3429H178.245V52.7905ZM178.245 46.2381H184.797V52.7905H178.245V46.2381ZM184.797 46.2381H191.35V52.7905H184.797V46.2381ZM211.007 39.6857H217.559V46.2381H211.007V39.6857ZM204.455 39.6857H211.007V46.2381H204.455V39.6857ZM184.797 39.6857H191.35V46.2381H184.797V39.6857ZM178.245 33.1333H184.797V39.6857H178.245V33.1333ZM178.245 39.6857H184.797V46.2381H178.245V39.6857ZM217.559 33.1333H224.112V39.6857H217.559V33.1333ZM211.007 33.1333H217.559V39.6857H211.007V33.1333ZM204.455 33.1333H211.007V39.6857H204.455V33.1333ZM184.797 33.1333H191.35V39.6857H184.797V33.1333ZM191.35 33.1333H197.902V39.6857H191.35V33.1333ZM197.902 33.1333H204.455V39.6857H197.902V33.1333ZM171.693 33.1333H178.245V39.6857H171.693V33.1333ZM165.14 33.1333H171.693V39.6857H165.14V33.1333ZM171.693 26.5809H178.245V33.1333H171.693V26.5809ZM178.245 26.5809H184.797V33.1333H178.245V26.5809ZM197.902 26.5809H204.455V33.1333H197.902V26.5809ZM204.455 26.5809H211.007V33.1333H204.455V26.5809ZM233.14 65.8952H239.692V72.4476H233.14V65.8952ZM239.692 65.8952H246.244V72.4476H239.692V65.8952ZM246.244 65.8952H252.797V72.4476H246.244V65.8952ZM252.797 65.8952H259.349V72.4476H252.797V65.8952ZM239.692 72.4476H246.244V79H239.692V72.4476ZM246.244 72.4476H252.797V79H246.244V72.4476ZM226.587 65.8952H233.14V72.4476H226.587V65.8952ZM233.14 59.3429H239.692V65.8952H233.14V59.3429ZM233.14 52.7905H239.692V59.3429H233.14V52.7905ZM233.14 46.2381H239.692V52.7905H233.14V46.2381ZM239.692 59.3429H246.244V65.8952H239.692V59.3429ZM239.692 52.7905H246.244V59.3429H239.692V52.7905ZM239.692 46.2381H246.244V52.7905H239.692V46.2381ZM239.692 39.6857H246.244V46.2381H239.692V39.6857ZM259.349 33.1333H265.902V39.6857H259.349V33.1333ZM259.349 39.6857H265.902V46.2381H259.349V39.6857ZM265.902 39.6857H272.454V46.2381H265.902V39.6857ZM259.349 46.2381H265.902V52.7905H259.349V46.2381ZM265.902 46.2381H272.454V52.7905H265.902V46.2381ZM265.902 52.7905H272.454V59.3429H265.902V52.7905ZM259.349 52.7905H265.902V59.3429H259.349V52.7905ZM259.349 59.3429H265.902V65.8952H259.349V59.3429ZM265.902 59.3429H272.454V65.8952H265.902V59.3429ZM259.349 65.8952H265.902V72.4476H259.349V65.8952ZM259.349 72.4476H265.902V79H259.349V72.4476ZM265.902 72.4476H272.454V79H265.902V72.4476ZM265.902 65.8952H272.454V72.4476H265.902V65.8952ZM272.454 65.8952H279.006V72.4476H272.454V65.8952ZM246.244 26.5809H252.797V33.1333H246.244V26.5809ZM252.797 26.5809H259.349V33.1333H252.797V26.5809ZM259.349 26.5809H265.902V33.1333H259.349V26.5809ZM272.454 33.1333H279.006V39.6857H272.454V33.1333ZM265.902 33.1333H272.454V39.6857H265.902V33.1333ZM239.692 33.1333H246.244V39.6857H239.692V33.1333ZM233.14 39.6857H239.692V46.2381H233.14V39.6857ZM281.45 65.8952H288.002V72.4476H281.45V65.8952ZM288.002 65.8952H294.555V72.4476H288.002V65.8952ZM294.555 65.8952H301.107V72.4476H294.555V65.8952ZM301.107 65.8952H307.659V72.4476H301.107V65.8952ZM307.659 65.8952H314.212V72.4476H307.659V65.8952ZM294.555 72.4476H301.107V79H294.555V72.4476ZM301.107 72.4476H307.659V79H301.107V72.4476ZM288.002 59.3429H294.555V65.8952H288.002V59.3429ZM294.555 59.3429H301.107V65.8952H294.555V59.3429ZM294.555 52.7905H301.107V59.3429H294.555V52.7905ZM294.555 46.2381H301.107V52.7905H294.555V46.2381ZM288.002 46.2381H294.555V52.7905H288.002V46.2381ZM288.002 52.7905H294.555V59.3429H288.002V52.7905ZM288.002 39.6857H294.555V46.2381H288.002V39.6857ZM294.555 39.6857H301.107V46.2381H294.555V39.6857ZM294.555 33.1333H301.107V39.6857H294.555V33.1333ZM294.555 26.5809H301.107V33.1333H294.555V26.5809ZM288.002 33.1333H294.555V39.6857H288.002V33.1333ZM288.002 26.5809H294.555V33.1333H288.002V26.5809ZM281.45 26.5809H288.002V33.1333H281.45V26.5809ZM301.107 26.5809H307.659V33.1333H301.107V26.5809ZM288.002 20.0286H294.555V26.5809H288.002V20.0286ZM294.555 20.0286H301.107V26.5809H294.555V20.0286ZM294.555 13.4762H301.107V20.0286H294.555V13.4762ZM288.002 13.4762H294.555V20.0286H288.002V13.4762ZM294.555 6.9238H301.107V13.4762H294.555V6.9238ZM307.659 26.5809H314.212V33.1333H307.659V26.5809ZM316.694 33.1333H323.246V39.6857H316.694V33.1333ZM323.246 33.1333H329.799V39.6857H323.246V33.1333ZM329.799 33.1333H336.351V39.6857H329.799V33.1333ZM336.351 33.1333H342.903V39.6857H336.351V33.1333ZM323.246 26.5809H329.799V33.1333H323.246V26.5809ZM329.799 26.5809H336.351V33.1333H329.799V26.5809ZM349.456 33.1333H356.008V39.6857H349.456V33.1333ZM356.008 33.1333H362.56V39.6857H356.008V33.1333ZM362.56 33.1333H369.113V39.6857H362.56V33.1333ZM369.113 33.1333H375.665V39.6857H369.113V33.1333ZM356.008 26.5809H362.56V33.1333H356.008V26.5809ZM362.56 26.5809H369.113V33.1333H362.56V26.5809ZM336.351 39.6857H342.903V46.2381H336.351V39.6857ZM329.799 39.6857H336.351V46.2381H329.799V39.6857ZM329.799 46.2381H336.351V52.7905H329.799V46.2381ZM329.799 52.7905H336.351V59.3429H329.799V52.7905ZM336.351 52.7905H342.903V59.3429H336.351V52.7905ZM336.351 59.3429H342.903V65.8952H336.351V59.3429ZM336.351 46.2381H342.903V52.7905H336.351V46.2381ZM329.799 59.3429H336.351V65.8952H329.799V59.3429ZM356.008 39.6857H362.56V46.2381H356.008V39.6857ZM362.56 39.6857H369.113V46.2381H362.56V39.6857ZM362.56 46.2381H369.113V52.7905H362.56V46.2381ZM362.56 52.7905H369.113V59.3429H362.56V52.7905ZM362.56 59.3429H369.113V65.8952H362.56V59.3429ZM356.008 52.7905H362.56V59.3429H356.008V52.7905ZM356.008 46.2381H362.56V52.7905H356.008V46.2381ZM356.008 59.3429H362.56V65.8952H356.008V59.3429ZM323.246 65.8952H329.799V72.4476H323.246V65.8952ZM329.799 65.8952H336.351V72.4476H329.799V65.8952ZM336.351 65.8952H342.903V72.4476H336.351V65.8952ZM342.903 65.8952H349.456V72.4476H342.903V65.8952ZM349.456 65.8952H356.008V72.4476H349.456V65.8952ZM356.008 65.8952H362.56V72.4476H356.008V65.8952ZM362.56 65.8952H369.113V72.4476H362.56V65.8952ZM369.113 65.8952H375.665V72.4476H369.113V65.8952ZM336.351 72.4476H342.903V79H336.351V72.4476ZM342.903 72.4476H349.456V79H342.903V72.4476ZM375.665 65.8952H382.218V72.4476H375.665V65.8952ZM369.113 72.4476H375.665V79H369.113V72.4476ZM362.56 72.4476H369.113V79H362.56V72.4476ZM391.143 65.8952H397.696V72.4476H391.143V65.8952ZM397.696 65.8952H404.248V72.4476H397.696V65.8952ZM404.248 65.8952H410.8V72.4476H404.248V65.8952ZM410.8 65.8952H417.353V72.4476H410.8V65.8952ZM397.696 72.4476H404.248V79H397.696V72.4476ZM404.248 72.4476H410.8V79H404.248V72.4476ZM397.696 59.3429H404.248V65.8952H397.696V59.3429ZM404.248 59.3429H410.8V65.8952H404.248V59.3429ZM404.248 52.7905H410.8V59.3429H404.248V52.7905ZM404.248 46.2381H410.8V52.7905H404.248V46.2381ZM404.248 39.6857H410.8V46.2381H404.248V39.6857ZM397.696 39.6857H404.248V46.2381H397.696V39.6857ZM397.696 46.2381H404.248V52.7905H397.696V46.2381ZM397.696 52.7905H404.248V59.3429H397.696V52.7905ZM404.248 33.1333H410.8V39.6857H404.248V33.1333ZM397.696 33.1333H404.248V39.6857H397.696V33.1333ZM391.143 33.1333H397.696V39.6857H391.143V33.1333ZM384.591 33.1333H391.143V39.6857H384.591V33.1333ZM391.143 26.5809H397.696V33.1333H391.143V26.5809ZM397.696 26.5809H404.248V33.1333H397.696V26.5809ZM410.8 26.5809H417.353V33.1333H410.8V26.5809ZM417.353 26.5809H423.905V33.1333H417.353V26.5809ZM423.905 26.5809H430.457V33.1333H423.905V26.5809ZM417.353 33.1333H423.905V39.6857H417.353V33.1333ZM423.905 33.1333H430.457V39.6857H423.905V33.1333ZM432.837 65.8952H439.389V72.4476H432.837V65.8952ZM426.285 65.8952H432.837V72.4476H426.285V65.8952ZM439.389 65.8952H445.942V72.4476H439.389V65.8952ZM432.837 72.4476H439.389V79H432.837V72.4476ZM439.389 72.4476H445.942V79H439.389V72.4476ZM432.837 52.7905H439.389V59.3429H432.837V52.7905ZM439.389 52.7905H445.942V59.3429H439.389V52.7905ZM439.389 46.2381H445.942V52.7905H439.389V46.2381ZM439.389 39.6857H445.942V46.2381H439.389V39.6857ZM432.837 39.6857H439.389V46.2381H432.837V39.6857ZM432.837 46.2381H439.389V52.7905H432.837V46.2381ZM439.389 33.1333H445.942V39.6857H439.389V33.1333ZM445.942 26.5809H452.494V33.1333H445.942V26.5809ZM459.047 26.5809H465.599V33.1333H459.047V26.5809ZM452.494 26.5809H459.047V33.1333H452.494V26.5809ZM459.047 33.1333H465.599V39.6857H459.047V33.1333ZM445.942 65.8952H452.494V72.4476H445.942V65.8952ZM452.494 33.1333H459.047V39.6857H452.494V33.1333ZM465.599 33.1333H472.151V39.6857H465.599V33.1333ZM465.599 39.6857H472.151V46.2381H465.599V39.6857ZM459.047 39.6857H465.599V46.2381H459.047V39.6857ZM452.494 46.2381H459.047V52.7905H452.494V46.2381ZM445.942 46.2381H452.494V52.7905H445.942V46.2381ZM432.837 59.3429H439.389V65.8952H432.837V59.3429ZM439.389 59.3429H445.942V65.8952H439.389V59.3429ZM452.494 65.8952H459.047V72.4476H452.494V65.8952Z" fill="white"/>
</svg>
