<svg width="224" height="224" viewBox="0 0 224 224" fill="none" xmlns="http://www.w3.org/2000/svg">
<mask id="path-1-outside-1_4_3" maskUnits="userSpaceOnUse" x="0" y="0" width="224" height="224" fill="black">
<rect fill="white" width="224" height="224"/>
<path d="M19.5 223H1V204.5H19.5V223ZM130.5 204.5V223H75V204.5H19.5V186H56.5V167.5H112V186H186V167.5H204.5V204.5H130.5ZM186 149V167.5H130.5V149H93.5V130.5H56.5V112H38V93.5H19.5V56.5H38V75H56.5V93.5H75V112H112V130.5H167.5V149H186ZM223 167.5H204.5V149H186V130.5H167.5V112H112V93.5H75V75H56.5V56.5H38V19.5H56.5V38H75V56.5H112V75H167.5V93.5H204.5V112H223V167.5ZM186 56.5H167.5V38H130.5V19.5H56.5V1H167.5V19.5H204.5V38H186V56.5ZM223 19.5H204.5V1H223V19.5Z"/>
</mask>
<path d="M19.5 223V224H20.5V223H19.5ZM1 223H0V224H1V223ZM1 204.5V203.5H0V204.5H1ZM130.5 204.5V203.5H129.5V204.5H130.5ZM130.5 223V224H131.5V223H130.5ZM75 223H74V224H75V223ZM75 204.5H76V203.5H75V204.5ZM19.5 186V185H18.5V186H19.5ZM56.5 186V187H57.5V186H56.5ZM56.5 167.5V166.5H55.5V167.5H56.5ZM112 167.5H113V166.5H112V167.5ZM112 186H111V187H112V186ZM186 186V187H187V186H186ZM204.5 204.5V205.5H205.5V204.5H204.5ZM130.5 167.5H129.5V168.5H130.5V167.5ZM130.5 149H131.5V148H130.5V149ZM93.5 149H92.5V150H93.5V149ZM93.5 130.5H94.5V129.5H93.5V130.5ZM56.5 130.5H55.5V131.5H56.5V130.5ZM56.5 112H57.5V111H56.5V112ZM38 112H37V113H38V112ZM38 93.5H39V92.5H38V93.5ZM19.5 93.5H18.5V94.5H19.5V93.5ZM19.5 56.5V55.5H18.5V56.5H19.5ZM38 75H37V76H38V75ZM56.5 93.5H55.5V94.5H56.5V93.5ZM75 112H74V113H75V112ZM112 130.5H111V131.5H112V130.5ZM167.5 149H166.5V150H167.5V149ZM223 167.5V168.5H224V167.5H223ZM204.5 149H205.5V148H204.5V149ZM186 130.5H187V129.5H186V130.5ZM167.5 112H168.5V111H167.5V112ZM112 93.5H113V92.5H112V93.5ZM75 75H76V74H75V75ZM56.5 56.5H57.5V55.5H56.5V56.5ZM38 19.5V18.5H37V19.5H38ZM56.5 38H55.5V39H56.5V38ZM75 38H76V37H75V38ZM75 56.5H74V57.5H75V56.5ZM112 56.5H113V55.5H112V56.5ZM112 75H111V76H112V75ZM167.5 75H168.5V74H167.5V75ZM167.5 93.5H166.5V94.5H167.5V93.5ZM204.5 93.5H205.5V92.5H204.5V93.5ZM204.5 112H203.5V113H204.5V112ZM223 112H224V111H223V112ZM186 56.5V57.5H187V56.5H186ZM167.5 56.5H166.5V57.5H167.5V56.5ZM167.5 38H168.5V37H167.5V38ZM130.5 38H129.5V39H130.5V38ZM130.5 19.5H131.5V18.5H130.5V19.5ZM56.5 1V0H55.5V1H56.5ZM167.5 1H168.5V0H167.5V1ZM167.5 19.5H166.5V20.5H167.5V19.5ZM204.5 38V39H205.5V38H204.5ZM186 38V37H185V38H186ZM223 19.5V20.5H224V19.5H223ZM204.5 1V0H203.5V1H204.5ZM223 1H224V0H223V1ZM19.5 223V222H1V223V224H19.5V223ZM1 223H2V204.5H1H0V223H1ZM1 204.5V205.5H19.5V204.5V203.5H1V204.5ZM19.5 204.5H18.5V223H19.5H20.5V204.5H19.5ZM130.5 204.5H129.5V223H130.5H131.5V204.5H130.5ZM130.5 223V222H75V223V224H130.5V223ZM75 223H76V204.5H75H74V223H75ZM75 204.5V203.5H19.5V204.5V205.5H75V204.5ZM19.5 204.5H20.5V186H19.5H18.5V204.5H19.5ZM19.5 186V187H56.5V186V185H19.5V186ZM56.5 186H57.5V167.5H56.5H55.5V186H56.5ZM56.5 167.5V168.5H112V167.5V166.5H56.5V167.5ZM112 167.5H111V186H112H113V167.5H112ZM112 186V187H186V186V185H112V186ZM186 186H187V167.5H186H185V186H186ZM186 167.5V168.5H204.5V167.5V166.5H186V167.5ZM204.5 167.5H203.5V204.5H204.5H205.5V167.5H204.5ZM204.5 204.5V203.5H130.5V204.5V205.5H204.5V204.5ZM186 149H185V167.5H186H187V149H186ZM186 167.5V166.5H130.5V167.5V168.5H186V167.5ZM130.5 167.5H131.5V149H130.5H129.5V167.5H130.5ZM130.5 149V148H93.5V149V150H130.5V149ZM93.5 149H94.5V130.5H93.5H92.5V149H93.5ZM93.5 130.5V129.5H56.5V130.5V131.5H93.5V130.5ZM56.5 130.5H57.5V112H56.5H55.5V130.5H56.5ZM56.5 112V111H38V112V113H56.5V112ZM38 112H39V93.5H38H37V112H38ZM38 93.5V92.5H19.5V93.5V94.5H38V93.5ZM19.5 93.5H20.5V56.5H19.5H18.5V93.5H19.5ZM19.5 56.5V57.5H38V56.5V55.5H19.5V56.5ZM38 56.5H37V75H38H39V56.5H38ZM38 75V76H56.5V75V74H38V75ZM56.5 75H55.5V93.5H56.5H57.5V75H56.5ZM56.5 93.5V94.5H75V93.5V92.5H56.5V93.5ZM75 93.5H74V112H75H76V93.5H75ZM75 112V113H112V112V111H75V112ZM112 112H111V130.5H112H113V112H112ZM112 130.5V131.5H167.5V130.5V129.5H112V130.5ZM167.5 130.5H166.5V149H167.5H168.5V130.5H167.5ZM167.5 149V150H186V149V148H167.5V149ZM223 167.5V166.5H204.5V167.5V168.5H223V167.5ZM204.5 167.5H205.5V149H204.5H203.5V167.5H204.5ZM204.5 149V148H186V149V150H204.5V149ZM186 149H187V130.5H186H185V149H186ZM186 130.5V129.5H167.5V130.5V131.5H186V130.5ZM167.5 130.5H168.5V112H167.5H166.5V130.5H167.5ZM167.5 112V111H112V112V113H167.5V112ZM112 112H113V93.5H112H111V112H112ZM112 93.5V92.5H75V93.5V94.5H112V93.5ZM75 93.5H76V75H75H74V93.5H75ZM75 75V74H56.5V75V76H75V75ZM56.5 75H57.5V56.5H56.5H55.5V75H56.5ZM56.5 56.5V55.5H38V56.5V57.5H56.5V56.5ZM38 56.5H39V19.5H38H37V56.5H38ZM38 19.5V20.5H56.5V19.5V18.5H38V19.5ZM56.5 19.5H55.5V38H56.5H57.5V19.5H56.5ZM56.5 38V39H75V38V37H56.5V38ZM75 38H74V56.5H75H76V38H75ZM75 56.5V57.5H112V56.5V55.5H75V56.5ZM112 56.5H111V75H112H113V56.5H112ZM112 75V76H167.5V75V74H112V75ZM167.5 75H166.5V93.5H167.5H168.5V75H167.5ZM167.5 93.5V94.5H204.5V93.5V92.5H167.5V93.5ZM204.5 93.5H203.5V112H204.5H205.5V93.5H204.5ZM204.5 112V113H223V112V111H204.5V112ZM223 112H222V167.5H223H224V112H223ZM186 56.5V55.5H167.5V56.5V57.5H186V56.5ZM167.5 56.5H168.5V38H167.5H166.5V56.5H167.5ZM167.5 38V37H130.5V38V39H167.5V38ZM130.5 38H131.5V19.5H130.5H129.5V38H130.5ZM130.5 19.5V18.5H56.5V19.5V20.5H130.5V19.5ZM56.5 19.5H57.5V1H56.5H55.5V19.5H56.5ZM56.5 1V2H167.5V1V0H56.5V1ZM167.5 1H166.5V19.5H167.5H168.5V1H167.5ZM167.5 19.5V20.5H204.5V19.5V18.5H167.5V19.5ZM204.5 19.5H203.5V38H204.5H205.5V19.5H204.5ZM204.5 38V37H186V38V39H204.5V38ZM186 38H185V56.5H186H187V38H186ZM223 19.5V18.5H204.5V19.5V20.5H223V19.5ZM204.5 19.5H205.5V1H204.5H203.5V19.5H204.5ZM204.5 1V2H223V1V0H204.5V1ZM223 1H222V19.5H223H224V1H223Z" fill="white" mask="url(#path-1-outside-1_4_3)"/>
</svg>
